<?xml version="1.0" standalone="no"?>
<!DOCTYPE svg PUBLIC "-//W3C//DTD SVG 20010904//EN"
 "http://www.w3.org/TR/2001/REC-SVG-20010904/DTD/svg10.dtd">
<svg version="1.0" xmlns="http://www.w3.org/2000/svg"
 width="16.000000pt" height="16.000000pt" viewBox="0 0 16.000000 16.000000"
 preserveAspectRatio="xMidYMid meet">

<g transform="translate(0.000000,16.000000) scale(0.100000,-0.100000)"
fill="#000000" stroke="none">
<path d="M4 147 c-3 -8 -4 -43 -2 -78 l3 -64 75 0 75 0 0 75 0 75 -73 3 c-55
2 -74 -1 -78 -11z m64 -19 c9 -9 15 -9 24 0 16 16 58 15 58 -2 0 -7 -6 -19
-14 -25 -8 -7 -17 -27 -20 -46 -6 -30 -11 -35 -36 -35 -25 0 -30 5 -36 35 -3
19 -12 39 -20 46 -8 6 -14 18 -14 25 0 17 42 18 58 2z"/>
</g>
</svg>
