<?xml version="1.0" encoding="utf-8"?>
<!-- Generator: Adobe Illustrator 28.1.0, SVG Export Plug-In . SVG Version: 6.00 Build 0)  -->
<svg version="1.1" id="Layer_1" xmlns="http://www.w3.org/2000/svg" xmlns:xlink="http://www.w3.org/1999/xlink" x="0px" y="0px"
	 viewBox="0 0 518.3 119.6" style="enable-background:new 0 0 518.3 119.6;" xml:space="preserve">
<style type="text/css">
	.st0{fill:#6D6E71;}
	.st1{fill:#21409A;}
	.st2{clip-path:url(#SVGID_00000089539965613512229710000009061328112309246129_);}
	.st3{fill:#FFFFFF;}
	.st4{clip-path:url(#SVGID_00000121971620754150304050000006726694234958508186_);}
	.st5{clip-path:url(#SVGID_00000070104934680592854950000002386518711881211833_);}
</style>
<g>
	<path class="st0" d="M146,84.5h10.8c10.6,0,19.2,6.9,19.2,15.4s-8.6,15.4-19.2,15.4H146L146,84.5L146,84.5z M156.8,112
		c8.1,0,14.6-5.3,14.6-12.1s-6.4-12.1-14.6-12.1h-6.1V112H156.8z"/>
	<path class="st0" d="M213.7,87.9v10.4h14.4v3.4h-14.4v10.4h16.6v3.3h-21.3V84.5h21.3v3.3L213.7,87.9L213.7,87.9z"/>
	<path class="st0" d="M261.8,109.8l3.4-2.8c1.5,3.1,6,5.1,11.3,5.1c4.6,0,8.1-1.4,8.2-4.9c0-4-4.6-5.4-9.5-6.9
		c-5.3-1.6-10.9-3.3-10.9-8.3c0-5.2,5.4-8,11.8-8c5.9,0,10.5,1.8,13,4.3L286,91c-1.7-2.1-5-3.6-9.8-3.6c-3.9,0-7.2,1.4-7.2,4.5
		s4,4.3,8.5,5.7c5.6,1.8,11.9,3.7,11.9,9.5s-5.7,8.7-13.1,8.7C270,115.8,264.5,113.3,261.8,109.8L261.8,109.8z"/>
	<path class="st0" d="M322.3,84.5h4.7v30.8h-4.7C322.3,115.4,322.3,84.5,322.3,84.5z"/>
	<path class="st0" d="M365.5,100.1c0,7.6,6.8,12.4,15.2,12.4c2.4,0,4.7-0.4,6.8-1.3v-8.9h-8.9v-3.4h13.1v14.5c-3.2,1.6-7,2.6-11,2.6
		c-10.7,0-19.5-6.4-19.5-15.9s8.8-16,19.4-16c4,0,7.9,1,11.1,2.6v4.7c-2.7-2.3-6.8-3.7-10.9-3.7C372.3,87.7,365.5,92.5,365.5,100.1
		L365.5,100.1z"/>
	<path class="st0" d="M458,84.5v30.8h-4.5l-23-24.8v24.8h-4.7V84.5h4.5l23.1,24.8V84.5C453.4,84.5,458,84.5,458,84.5z"/>
	<path class="st0" d="M490.7,109.8l3.4-2.8c1.5,3.1,6,5.1,11.3,5.1c4.6,0,8.1-1.4,8.2-4.9c0-4-4.6-5.4-9.5-6.9
		c-5.3-1.6-10.9-3.3-10.9-8.3c0-5.2,5.4-8,11.8-8c5.9,0,10.4,1.8,13,4.3l-3.1,2.6c-1.7-2.1-5-3.6-9.8-3.6c-3.9,0-7.2,1.4-7.2,4.5
		s4,4.3,8.5,5.7c5.6,1.8,11.9,3.7,11.9,9.5s-5.7,8.7-13.1,8.7C498.9,115.8,493.4,113.3,490.7,109.8L490.7,109.8z"/>
</g>
<g>
	<path class="st1" d="M15.1,0C6.8,0,0,6.8,0,15.1v89.4c0,8.3,6.8,15.1,15.1,15.1h89.4c8.3,0,15.1-6.8,15.1-15.1V15.1
		c0-8.3-6.8-15.1-15.1-15.1H15.1z"/>
	<g>
		<defs>
			<path id="SVGID_1_" d="M15.1,0C6.8,0,0,6.8,0,15.1v89.4c0,8.3,6.8,15.1,15.1,15.1h89.4c8.3,0,15.1-6.8,15.1-15.1V15.1
				c0-8.3-6.8-15.1-15.1-15.1H15.1z"/>
		</defs>
		<clipPath id="SVGID_00000013173013364535510170000014171930021245526941_">
			<use xlink:href="#SVGID_1_"  style="overflow:visible;"/>
		</clipPath>
		<g style="clip-path:url(#SVGID_00000013173013364535510170000014171930021245526941_);">
			<rect class="st1" width="119.6" height="119.6"/>
		</g>
	</g>
</g>
<g>
	<path class="st3" d="M78.4,12.4v0.1c0,10.9-7.6,19.8-17,19.8v74.9H82c0.2-74,30.8-71.4,30.8-71.4V12.4H78.4z"/>
	<g>
		<defs>
			<path id="SVGID_00000083794841182431049740000017107141451356289687_" d="M78.4,12.4v0.1c0,10.9-7.6,19.8-17,19.8v74.9H82
				c0.2-74,30.8-71.4,30.8-71.4V12.4H78.4z"/>
		</defs>
		<clipPath id="SVGID_00000089555936823822240130000016866753015701351299_">
			<use xlink:href="#SVGID_00000083794841182431049740000017107141451356289687_"  style="overflow:visible;"/>
		</clipPath>
		<g style="clip-path:url(#SVGID_00000089555936823822240130000016866753015701351299_);">
			<rect x="61.5" y="12.4" class="st3" width="51.3" height="94.8"/>
		</g>
	</g>
</g>
<g>
	<path class="st3" d="M6.8,12.4v23.4c0,0,30.5-2.6,30.8,71.4h20.5V32.4c-9.4,0-17-8.9-17-19.8c0,0,0-0.1,0-0.1
		C41.2,12.4,6.8,12.4,6.8,12.4z"/>
	<g>
		<defs>
			<path id="SVGID_00000024703407680768165430000014093958402263021199_" d="M6.8,12.4v23.4c0,0,30.5-2.6,30.8,71.4h20.5V32.4
				c-9.4,0-17-8.9-17-19.8c0,0,0-0.1,0-0.1C41.2,12.4,6.8,12.4,6.8,12.4z"/>
		</defs>
		<clipPath id="SVGID_00000181062346017416622740000008786859041979037343_">
			<use xlink:href="#SVGID_00000024703407680768165430000014093958402263021199_"  style="overflow:visible;"/>
		</clipPath>
		<g style="clip-path:url(#SVGID_00000181062346017416622740000008786859041979037343_);">
			<rect x="6.8" y="12.4" class="st3" width="51.3" height="94.8"/>
		</g>
	</g>
</g>
<g>
	<path class="st1" d="M147.1,4.4h8.4v68.7h-8.4V4.4z"/>
	<path class="st1" d="M239.1,4.4v68.7h-8.3V16.5l-26.7,39.7l-26.4-39.6v56.5h-8.4V4.4h9l25.9,38.3l26-38.3L239.1,4.4L239.1,4.4z"/>
	<path class="st1" d="M297.8,23.8c0,10.7-8.7,19.1-19.5,19.1h-17v30.2H253V4.4h25.4C289.2,4.4,297.9,13.1,297.8,23.8L297.8,23.8z
		 M290.1,23.9c0-7-5.6-12-12.2-12h-16.5v24.1h16.5C284.5,35.9,290.1,31.1,290.1,23.9L290.1,23.9z"/>
	<path class="st1" d="M353.9,73.1h-9.4l-16.5-30.7h-12.3v30.7h-8.4V4.4h25.4c10.7,0,19.5,8.6,19.5,19.4c0,9.2-6.8,16.7-15.7,18.1
		L353.9,73.1L353.9,73.1z M332.5,35.6c6.6,0,11.9-5.3,11.9-11.9s-5.4-11.8-11.9-11.8h-16.8v23.7H332.5z"/>
	<path class="st1" d="M370.3,11.9V35h26v7.5h-26v23.2h29.9v7.4h-38.3V4.4h38.3v7.4C400.2,11.9,370.3,11.9,370.3,11.9z"/>
	<path class="st1" d="M408.9,60.7l6.1-6.1c2.8,6.9,10.8,11.4,20.3,11.4c8.2,0,14.7-3.2,14.8-10.9c0.1-8.9-8.3-12.1-17.1-15.4
		c-9.6-3.6-19.7-7.3-19.7-18.4c0-11.6,9.7-17.9,21.3-17.9c10.7,0,18.8,4,23.5,9.5l-5.6,5.7c-3.1-4.7-9-8-17.6-8c-7,0-13,3.1-13,10
		s7.2,9.7,15.2,12.7c10.1,3.9,21.5,8.3,21.5,21.2S448.2,74,435,74C423.7,74,413.7,68.5,408.9,60.7L408.9,60.7z"/>
	<path class="st1" d="M467,60.7l6.1-6.1c2.8,6.9,10.8,11.4,20.3,11.4c8.2,0,14.7-3.2,14.8-10.9c0.1-8.9-8.3-12.1-17.1-15.4
		c-9.6-3.6-19.7-7.3-19.7-18.4c0-11.6,9.7-17.9,21.3-17.9c10.7,0,18.8,4,23.4,9.5l-5.6,5.7c-3.1-4.7-9-8-17.6-8c-7,0-13,3.1-13,10
		s7.2,9.7,15.2,12.7c10.1,3.9,21.5,8.3,21.5,21.2S506.3,74,493.1,74C481.7,74,471.8,68.5,467,60.7L467,60.7z"/>
</g>
</svg>
